<svg width="150" height="90" xmlns="http://www.w3.org/2000/svg" xmlns:xlink="http://www.w3.org/1999/xlink" xml:space="preserve" overflow="hidden"><defs><clipPath id="clip0"><rect x="437" y="489" width="535" height="354"/></clipPath></defs><g clip-path="url(#clip0)" transform="translate(-437 -489)"><path d="M0 0 99.458 0.000360892" stroke="#FFFFFF" stroke-width="27.5" stroke-miterlimit="8" fill="#FFFFFF" fill-rule="evenodd" transform="matrix(1 0 0 -1 437 503)"/><path d="M526 498 648.851 661.926" stroke="#FFFFFF" stroke-width="27.5" stroke-miterlimit="8" fill="#FFFFFF" fill-rule="evenodd"/><path d="M0 0 228.127 2.46742" stroke="#FFFFFF" stroke-width="27.5" stroke-miterlimit="8" fill="#FFFFFF" fill-rule="evenodd" transform="matrix(1 0 0 -1 639 656.468)"/><path d="M0 0 100.118 133.524" stroke="#FFFFFF" stroke-width="27.5" stroke-miterlimit="8" fill="#FFFFFF" fill-rule="evenodd" transform="matrix(1 0 0 -1 857 762.524)"/><path d="M685.5 817C685.5 804.021 695.574 793.5 708 793.5 720.426 793.5 730.5 804.021 730.5 817 730.5 829.979 720.426 840.5 708 840.5 695.574 840.5 685.5 829.979 685.5 817Z" stroke="#FFFFFF" stroke-width="4.58333" stroke-miterlimit="8" fill="#FFFFFF" fill-rule="evenodd"/><path d="M785.5 817C785.5 804.021 795.797 793.5 808.5 793.5 821.203 793.5 831.5 804.021 831.5 817 831.5 829.979 821.203 840.5 808.5 840.5 795.797 840.5 785.5 829.979 785.5 817Z" stroke="#FFFFFF" stroke-width="4.58333" stroke-miterlimit="8" fill="#FFFFFF" fill-rule="evenodd"/></g></svg>